inDegrees=yes
name=ik_lifting_orientations
DataType=double
version=3
OpenSimVersion=4.5-2024-01-10-34fd6af
endheader
time	pelvis_tilt	pelvis_list	pelvis_rotation	pelvis_tx	pelvis_ty	pelvis_tz	hip_flexion_r	hip_adduction_r	hip_rotation_r	knee_angle_r	knee_angle_r_beta	ankle_angle_r	subtalar_angle_r	mtp_angle_r	hip_flexion_l	hip_adduction_l	hip_rotation_l	knee_angle_l	knee_angle_l_beta	ankle_angle_l	subtalar_angle_l	mtp_angle_l	lumbar_extension	lumbar_bending	lumbar_rotation	arm_flex_r	arm_add_r	arm_rot_r	elbow_flex_r	pro_sup_r	wrist_flex_r	wrist_dev_r	arm_flex_l	arm_add_l	arm_rot_l	elbow_flex_l	pro_sup_l	wrist_flex_l	wrist_dev_l
0.02	-0.008922953818471463	-0.02153415456018106	-90.00368116452672	0	0.9399999998679526	0	44.99032510426175	-11.65891933546519	0	59.99596541232794	1.04712713435776	-5.80428647366719	0	0	44.99032510426175	-11.65891933546519	0	59.99596541232794	1.04712713435776	-5.80428647366719	0	0	-0.03898173127342728	0.01221672082853765	0.02677330345158449	-0.4653440095600688	-0.1240487427515203	-0.04095811666672483	1.006711236238169	2.549690787394556	0	0	0	-10.29457151042695	0	87.50082065914927	2.549690787394556	0	0
0.03	-0.002351315796287153	0.04221758191339982	-89.99303201325834	0	0.9399999998679526	0	44.99053725464648	-11.54438510390541	0	59.99603768635319	1.047128395777464	-5.734919171104524	0	0	44.99053725464648	-11.54438510390541	0	59.99603768635319	1.047128395777464	-5.734919171104524	0	0	0.06750473767375757	0.01818331914154119	-0.001336150227556265	-0.5168590197905331	-0.1292741816276798	-0.06313587931136885	1.004681176244357	2.510269825517522	0	0	0	-10.34855460210834	0	87.53945694993357	2.510269825517522	0	0
0.04	-0.001282889258475744	0.01744819087235935	-90.07333553961638	0	0.9399999998679526	0	44.99075048709104	-11.4357462781355	0	59.99611076134477	1.047129671176668	-5.670523175192645	0	0	44.99075048709104	-11.4357462781355	0	59.99611076134477	1.047129671176668	-5.670523175192645	0	0	0.02401750346928989	0.003480969881423371	0.07479445638819637	-0.3094146267054333	-0.06994527849192304	-0.01379415183989637	0.6229275810903753	2.470338231846631	0	0	0	-10.40349992112296	0	87.57859376684088	2.470338231846631	0	0
0.05	0.0005601127388798488	-0.00406086574072272	-90.06980851645358	0	0.9399999998679526	0	44.99096542599084	-11.33233975925967	0	59.9961848333195	1.047130963976511	-5.610515050723344	0	0	44.99096542599084	-11.33233975925967	0	59.9961848333195	1.047130963976511	-5.610515050723344	0	0	-0.007680863005978887	-0.001677683973055524	0.06879462047451876	-0.2305684854883243	-0.05328264975816745	-0.005077248078205737	0.4921067628112139	2.429778122104982	0	0	0	-10.45957110667679	0	87.61834664720814	2.429778122104982	0	0
0.06	-0.01975326958603332	-0.009228899533151237	-90.08114702212372	0	0.9399999998679526	0	44.99142624111544	-11.14994370302324	0	59.99634661737018	1.047133787640872	-5.51190196515825	0	0	44.99142624111544	-11.14994370302324	0	59.99634661737018	1.047133787640872	-5.51190196515825	0	0	-0.009131135753905908	0.003062023859142255	0.07375299853879694	-0.4790032266286498	-0.08412003483605442	0.003596549701979827	0.9893819263583984	2.340467166009753	0	0	0	-10.58508263205745	0	87.70588054661788	2.340467166009753	0	0
0.07000000000000001	0.002532944813939282	-0.000545360553373639	-90.06892180461922	0	0.9399999998679526	0	44.99153930965819	-11.10308092178443	0	59.99638619403561	1.047134478383991	-5.485946311281524	0	0	44.99153930965819	-11.10308092178443	0	59.99638619403561	1.047134478383991	-5.485946311281524	0	0	-0.005278451660801595	-0.001441468685245712	0.0697312784039324	-0.2739766235584635	-0.05903857191369627	-0.00609973004022032	0.520294642058409	2.318639485615933	0	0	0	-10.61569141928434	0	87.72727389591304	2.318639485615933	0	0
0.08	-0.0002842503446338324	-0.0006364062519845693	-90.06964501568879	0	0.9399999998679526	0	44.99196971954257	-10.95317279439381	0	59.99653930710617	1.0471371507112	-5.408377396692826	0	0	44.99196971954257	-10.95317279439381	0	59.99653930710617	1.0471371507112	-5.408377396692826	0	0	-0.001615526447497996	-0.0003872099909001042	0.07049706726711642	-0.2785003896254819	-0.0563740157795327	-0.006135963240019427	0.520823928894378	2.233656936067955	0	0	0	-10.73651033841195	0	87.8105657540857	2.233656936067955	0	0
0.09	-0.0004276815326374529	-0.000566681129633905	-90.07098440725356	0	0.9399999998679526	0	44.99231712868956	-10.82554351303663	0	59.996662477697	1.047139300443552	-5.340474369068245	0	0	44.99231712868956	-10.82554351303663	0	59.996662477697	1.047139300443552	-5.340474369068245	0	0	-0.0007557356832780072	0.0005373043155504257	0.07068106227056072	-0.2392048260693636	-0.05635388735540809	-0.03940424649788511	0.4952569474420409	2.165387763982049	0	0	0	-10.8333116473881	0	87.87747667424993	2.165387763982049	0	0
0.1	0.004415765351162315	-1.188467724242492e-05	-90.06283862660729	0	0.9399999998679526	0	44.99276251100931	-10.69565181808879	0	59.99682397659797	1.047142119131112	-5.276972344128181	0	0	44.99276251100931	-10.69565181808879	0	59.99682397659797	1.047142119131112	-5.276972344128181	0	0	-0.002407810879223715	-0.003579622670143296	0.06970472129994204	-0.2347896778431013	-0.05446605849524392	-0.05001639723817188	0.4882000018825115	2.075063325442361	0	0	0	-10.9638926639211	0	87.96600444995235	2.075063325442361	0	0
0.11	0.00126175796165983	-0.001875640531736487	-90.13750144190203	0	0.9399999998679526	0	44.99293052833756	-10.64573701868406	0	59.99688486513892	1.047143181836628	-5.252280049305264	0	0	44.99293052833756	-10.64573701868406	0	59.99688486513892	1.047143181836628	-5.252280049305264	0	0	0.02874414460942093	-0.02729527409650466	0.1055611215044397	-0.2683090519850502	-0.03429544836609546	-0.009090857525120311	0.4950973202227111	2.041018522455402	0	0	0	-11.01309476409711	0	87.99937205313026	2.041018522455402	0	0
0.12	-0.001745348320805912	-0.006929552687348992	-90.15169724797319	0	0.9399999998679526	0	44.99311967687679	-10.59341184959127	0	59.99695388712605	1.04714438649756	-5.22706521275582	0	0	44.99311967687679	-10.59341184959127	0	59.99695388712605	1.04714438649756	-5.22706521275582	0	0	0.02360087985934583	-0.03133243889863367	0.1079201232214777	-0.2706212932149625	-0.06571015297575479	0.01047110307927501	0.511732301272904	2.002316259978195	0	0	0	-11.06936445139186	0	88.03730451904282	2.002316259978195	0	0
0.13	-0.0166777018644904	0.03540534460779862	-90.14824329537613	0	0.9399999998679526	0	44.99327248024841	-10.55253674102414	0	59.99700983902151	1.047145363042358	-5.207608419710424	0	0	44.99327248024841	-10.55253674102414	0	59.99700983902151	1.047145363042358	-5.207608419710424	0	0	0.09411955717461766	-0.004389221267803361	0.1168104844074299	-0.540790335390508	-0.1249625245096568	0.01741596786532827	1.000713456473805	1.970905277407536	0	0	0	-11.11516443900243	0	88.06809074526677	1.970905277407536	0	0
0.14	0.001059820068425337	-0.00632565059032431	-90.13655673631089	0	0.9399999998679526	0	44.99346367167664	-10.50442463004533	0	59.99708030603501	1.047146592923758	-5.185235422873327	0	0	44.99346367167664	-10.50442463004533	0	59.99708030603501	1.047146592923758	-5.185235422873327	0	0	0.02187671559549475	-0.03748371126833563	0.1002310008343002	-0.5062715156038052	-0.1013368883129342	0.02085958921017778	1.001917298731815	1.931286029173974	0	0	0	-11.1732159206024	0	88.10692201154544	1.931286029173974	0	0
0.15	-0.003359418980960176	-0.006730352894175682	-90.13539899857143	0	0.9399999998679526	0	44.99360633320063	-10.46990221549299	0	59.99713306178128	1.04714751368523	-5.169406088603726	0	0	44.99360633320063	-10.46990221549299	0	59.99713306178128	1.04714751368523	-5.169406088603726	0	0	0.05552078031271956	-0.06142819676922995	0.06911970734751473	-0.3029034966379882	-0.01929633992581278	0.05633451990481314	0.5137849386246313	1.901560305492512	0	0	0	-11.21691989865798	0	88.13605654152195	1.901560305492512	0	0
0.16	-0.006868371398986888	0.01231272892055411	-90.1429850706311	0	0.9399999998679526	0	44.99376592476889	-10.43427151789983	0	59.99719253868999	1.047148551753116	-5.153541314036953	0	0	44.99376592476889	-10.43427151789983	0	59.99719253868999	1.047148551753116	-5.153541314036953	0	0	0.1008410580886362	-0.04839405309134046	0.0786045648082956	-0.5715769761184913	-0.09074434989861421	0.06714426743739771	1.007634340899518	1.867934868043819	0	0	0	-11.26669797904098	0	88.16901326700842	1.867934868043819	0	0
